{"title":"The Blacklist S01E04 HDTV 480p x264 AAC [GWC].mp4","uid":9048991,"size":139409298,"categoryP":"video","categoryS":"tv_shows","magnet":"?xt=urn:btih:4d517e16fc17978597210c28ce8e5f25837a6774&amp;dn=The+Blacklist+S01E04+HDTV+480p+x264+AAC+%5BGWC%5D.mp4&amp;tr=udp%3A%2F%2Ftracker.openbittorrent.com%3A80&amp;tr=udp%3A%2F%2Fopen.demonii.com%3A1337&amp;tr=udp%3A%2F%2Ftracker.coppersurfer.tk%3A6969&amp;tr=udp%3A%2F%2Fexodus.desync.com%3A6969","seeders":3,"leechers":0,"uploader":"canc232","files":1,"time":1381829016,"description":"The Blacklist S01E04 HDTV 480p x264 AAC [GWC]\n\n\nSCREENS : &lt;a href=&quot;\nhttp://s20.postimg.org/v72ijcwe5/The_Blacklist_S01_E04_HDTV_480p_x264_AAC_GWC_12.jpg&quot; rel=&quot;nofollow&quot; target=&quot;_NEW&quot;&gt;\nhttp://s20.postimg.org/v72ijcwe5/The_Blacklist_S01_E04_HDTV_480p_x264_AAC_GWC_12.jpg&lt;/a&gt;\n &lt;a href=&quot;\nhttp://s20.postimg.org/gnqbktwxp/The_Blacklist_S01_E04_HDTV_480p_x264_AAC_GWC_12.jpg&quot; rel=&quot;nofollow&quot; target=&quot;_NEW&quot;&gt;\nhttp://s20.postimg.org/gnqbktwxp/The_Blacklist_S01_E04_HDTV_480p_x264_AAC_GWC_12.jpg&lt;/a&gt;\n &lt;a href=&quot;\nhttp://s20.postimg.org/z20uot98d/The_Blacklist_S01_E04_HDTV_480p_x264_AAC_GWC_12.jpg&quot; rel=&quot;nofollow&quot; target=&quot;_NEW&quot;&gt;\nhttp://s20.postimg.org/z20uot98d/The_Blacklist_S01_E04_HDTV_480p_x264_AAC_GWC_12.jpg&lt;/a&gt;\n\nMEDIA INFO :\n\nGeneral \nFormat : MPEG-4 \nFormat profile : Base Media \nFile size : 133 MiB \nDuration : 40mn 51s \nOverall bit rate mode : Variable \nOverall bit rate : 455 Kbps \n\nVideo \nFormat : AVC \nFormat profile : &lt;a class=&quot;__cf_email__&quot; href=&quot;/cdn-cgi/l/email-protection&quot; data-cfemail=&quot;1951707e7159552a3729&quot;&gt;[email&amp;#160;protected]&lt;/a&gt;&lt;script cf-hash='f9e31' type=&quot;text/javascript&quot;&gt;\n/* &lt;![CDATA[ */!function(){try{var t=&quot;currentScript&quot;in document?document.currentScript:function(){for(var t=document.getElementsByTagName(&quot;script&quot;),e=t.length;e--;)if(t[e].getAttribute(&quot;cf-hash&quot;))return t[e]}();if(t&amp;&amp;t.previousSibling){var e,r,n,i,c=t.previousSibling,a=c.getAttribute(&quot;data-cfemail&quot;);if(a){for(e=&quot;&quot;,r=parseInt(a.substr(0,2),16),n=2;a.length-n;n+=2)i=parseInt(a.substr(n,2),16)^r,e+=String.fromCharCode(i);e=document.createTextNode(e),c.parentNode.replaceChild(e,c)}}}catch(u){}}();/* ]]&gt; */&lt;/script&gt; \nFormat settings, CABAC : Yes \nFormat settings, ReFrames : 4 frames \nDuration : 40mn 51s \nBit rate : 396 Kbps \nWidth : 720 pixels \nHeight : 404 pixels \nDisplay aspect ratio : 16:9 \nFrame rate : 23.976 fps \nStream size : 116 MiB (87%) \nTitle : The Blacklist S01E04 HDTV 480p x264 AAC [GWC] \nWriting library : x264 core \n\nAudio \nFormat : AAC \nFormat profile : HE-AAC / LC \nDuration : 40mn 51s \nBit rate mode : Variable \nChannel(s) : 2 channels \nSampling rate : 48.0 KHz / 24.0 KHz \nStream size : 16.4 MiB (12%) \nTitle : The Blacklist S01E04 HDTV 480p x264 AAC [GWC] \nLanguage : English","torrent":{"xt":"urn:btih:4d517e16fc17978597210c28ce8e5f25837a6774","amp;dn":"The+Blacklist+S01E04+HDTV+480p+x264+AAC+%5BGWC%5D.mp4","amp;tr":["udp%3A%2F%2Ftracker.openbittorrent.com%3A80","udp%3A%2F%2Fopen.demonii.com%3A1337","udp%3A%2F%2Ftracker.coppersurfer.tk%3A6969","udp%3A%2F%2Fexodus.desync.com%3A6969"],"infoHash":"4d517e16fc17978597210c28ce8e5f25837a6774","infoHashBuffer":{"type":"Buffer","data":[77,81,126,22,252,23,151,133,151,33,12,40,206,142,95,37,131,122,103,116]},"announce":[],"urlList":[]}}